<?xml version="1.0" encoding="UTF-8" standalone="no"?>
<svg
   width="698pt"
   height="157pt"
   viewBox="0 0 698 157"
   version="1.1"
   id="svg21"
   xmlns="http://www.w3.org/2000/svg"
   xmlns:svg="http://www.w3.org/2000/svg">
  <defs
     id="defs21" />
  <g
     id="graph0"
     class="graph"
     transform="translate(4,152.6)">
    <title
       id="title1">GrimoireFSM</title>
    <!-- Patrol -->
    <g
       id="node1"
       class="node">
      <title
         id="title2">Patrol</title>
      <path
         fill="none"
         stroke="#f0f6fc"
         d="m 161.86,-92.2 c 0,0 -149.86,0 -149.86,0 -6,0 -12,6 -12,12 0,0 0,51.2 0,51.2 0,6 6,12 12,12 0,0 149.86,0 149.86,0 6,0 12,-6 12,-12 0,0 0,-51.2 0,-51.2 0,-6 -6,-12 -12,-12"
         id="path2" />
      <text
         xml:space="preserve"
         text-anchor="middle"
         x="86.93"
         y="-75.599998"
         font-size="14px"
         id="text2"
         style="font-style:normal;font-variant:normal;font-weight:bold;font-stretch:normal;font-family:'Segoe UI';fill:#f0f6fc;">PATROL</text>
      <text
         xml:space="preserve"
         text-anchor="start"
         x="3"
         y="-58.799999"
         font-size="14px"
         id="text3"
         style="font-style:normal;font-variant:normal;font-weight:normal;font-stretch:normal;font-family:'Segoe UI';fill:#f0f6fc;">• Move between waypoints</text>
      <text
         xml:space="preserve"
         text-anchor="start"
         x="3"
         y="-42"
         font-size="14px"
         id="text4"
         style="font-style:normal;font-variant:normal;font-weight:normal;font-stretch:normal;font-family:'Segoe UI';fill:#f0f6fc;">• Default spotlight</text>
      <text
         xml:space="preserve"
         text-anchor="start"
         x="3"
         y="-25.200001"
         font-size="14px"
         id="text5"
         style="font-style:normal;font-variant:normal;font-weight:normal;font-stretch:normal;font-family:'Segoe UI';fill:#f0f6fc;">• Check for players</text>
    </g>
    <!-- Alert -->
    <g
       id="node2"
       class="node">
      <title
         id="title5">Alert</title>
      <path
         fill="none"
         stroke="#f0f6fc"
         d="m 406.71,-148.6 c 0,0 -104.38,0 -104.38,0 -6,0 -12,6 -12,12 0,0 0,68 0,68 0,6 6,12 12,12 0,0 104.38,0 104.38,0 6,0 12,-6 12,-12 0,0 0,-68 0,-68 0,-6 -6,-12 -12,-12"
         id="path5" />
      <text
         xml:space="preserve"
         text-anchor="middle"
         x="354.51999"
         y="-132"
         font-size="14px"
         id="text6"
         style="font-style:normal;font-variant:normal;font-weight:bold;font-stretch:normal;font-family:'Segoe UI';fill:#f0f6fc;">ALERT</text>
      <text
         xml:space="preserve"
         text-anchor="start"
         x="295"
         y="-115.2"
         font-size="14px"
         id="text7"
         style="font-style:normal;font-variant:normal;font-weight:normal;font-stretch:normal;font-family:'Segoe UI';fill:#f0f6fc;">• Stop movement</text>
      <text
         xml:space="preserve"
         text-anchor="start"
         x="295"
         y="-98.400002"
         font-size="14px"
         id="text8"
         style="font-style:normal;font-variant:normal;font-weight:normal;font-stretch:normal;font-family:'Segoe UI';fill:#f0f6fc;">• Red spotlight</text>
      <text
         xml:space="preserve"
         text-anchor="start"
         x="295"
         y="-81.599998"
         font-size="14px"
         id="text9"
         style="font-style:normal;font-variant:normal;font-weight:normal;font-stretch:normal;font-family:'Segoe UI';fill:#f0f6fc;">• Track player</text>
      <text
         xml:space="preserve"
         text-anchor="start"
         x="295"
         y="-64.800003"
         font-size="14px"
         id="text10"
         style="font-style:normal;font-variant:normal;font-weight:normal;font-stretch:normal;font-family:'Segoe UI';fill:#f0f6fc;">• Countdown timer</text>
    </g>
    <!-- Patrol&#45;&gt;Alert -->
    <g
       id="edge1"
       class="edge">
      <title
         id="title10">Patrol-&gt;Alert</title>
      <path
         fill="none"
         stroke="#f0f6fc"
         d="m 174.25,-85.43 c 5.92,-1.57 11.82,-2.98 17.61,-4.17 28.12,-5.77 59.48,-9.01 87.04,-10.82"
         id="path10" />
      <polygon
         fill="#f0f6fc"
         stroke="#f0f6fc"
         points="278.78,-96.9 278.36,-103.89 288.55,-100.99 "
         id="polygon10" />
      <text
         xml:space="preserve"
         text-anchor="middle"
         x="232.09"
         y="-120.86"
         font-size="14px"
         id="text11"
         style="font-style:normal;font-variant:normal;font-weight:normal;font-stretch:normal;font-family:'Segoe UI';fill:#f0f6fc;">Player</text>
      <text
         xml:space="preserve"
         text-anchor="middle"
         x="232.09"
         y="-104.06"
         font-size="14px"
         id="text12"
         style="font-style:normal;font-variant:normal;font-weight:normal;font-stretch:normal;font-family:'Segoe UI';fill:#f0f6fc;">Detected</text>
    </g>
    <!-- Alert&#45;&gt;Patrol -->
    <g
       id="edge3"
       class="edge">
      <title
         id="title12">Alert-&gt;Patrol</title>
      <path
         fill="none"
         stroke="#f0f6fc"
         d="m 289.9,-58.58 c -5.77,2.63 -11.66,4.89 -17.57,6.58 -27.58,7.89 -58.45,9.94 -86.92,9.27"
         id="path12" />
      <polygon
         fill="#f0f6fc"
         stroke="#f0f6fc"
         points="185.84,-46.22 185.59,-39.22 175.72,-43.08 "
         id="polygon12" />
      <text
         xml:space="preserve"
         text-anchor="middle"
         x="232.09"
         y="-73"
         font-size="14px"
         id="text13"
         style="font-style:normal;font-variant:normal;font-weight:normal;font-stretch:normal;font-family:'Segoe UI';fill:#f0f6fc;">Timer Expires</text>
      <text
         xml:space="preserve"
         text-anchor="middle"
         x="232.09"
         y="-56.200001"
         font-size="14px"
         id="text14"
         style="font-style:normal;font-variant:normal;font-weight:normal;font-stretch:normal;font-family:'Segoe UI';fill:#f0f6fc;">&amp; Player Lost</text>
    </g>
    <!-- Tracking -->
    <g
       id="node3"
       class="node">
      <title
         id="title14">Tracking</title>
      <path
         fill="none"
         stroke="#f0f6fc"
         d="m 677.6,-75.2 c 0,0 -116.79,0 -116.79,0 -6,0 -12,6 -12,12 0,0 0,51.2 0,51.2 0,6 6,12 12,12 0,0 116.79,0 116.79,0 6,0 12,-6 12,-12 0,0 0,-51.2 0,-51.2 0,-6 -6,-12 -12,-12"
         id="path14" />
      <text
         xml:space="preserve"
         text-anchor="middle"
         x="619.20001"
         y="-58.599998"
         font-size="14px"
         id="text15"
         style="font-style:normal;font-variant:normal;font-weight:bold;font-stretch:normal;font-family:'Segoe UI';fill:#f0f6fc;">TRACKING</text>
      <text
         xml:space="preserve"
         text-anchor="start"
         x="555"
         y="-41.799999"
         font-size="14px"
         id="text16"
         style="font-style:normal;font-variant:normal;font-weight:normal;font-stretch:normal;font-family:'Segoe UI';fill:#f0f6fc;">• Increase speed</text>
      <text
         xml:space="preserve"
         text-anchor="start"
         x="555"
         y="-25"
         font-size="14px"
         id="text17"
         style="font-style:normal;font-variant:normal;font-weight:normal;font-stretch:normal;font-family:'Segoe UI';fill:#f0f6fc;">• Chase player</text>
      <text
         xml:space="preserve"
         text-anchor="start"
         x="555"
         y="-8.1999998"
         font-size="14px"
         id="text18"
         style="font-style:normal;font-variant:normal;font-weight:normal;font-stretch:normal;font-family:'Segoe UI';fill:#f0f6fc;">• Call reinforcements</text>
    </g>
    <!-- Alert&#45;&gt;Tracking -->
    <g
       id="edge2"
       class="edge">
      <title
         id="title18">Alert-&gt;Tracking</title>
      <path
         fill="none"
         stroke="#f0f6fc"
         d="m 419.11,-86.87 c 35.65,8.83 80.48,19.92 118.57,29.34"
         id="path18" />
      <polygon
         fill="#f0f6fc"
         stroke="#f0f6fc"
         points="536.73,-54.16 538.41,-60.95 547.28,-55.15 "
         id="polygon18" />
      <text
         xml:space="preserve"
         text-anchor="middle"
         x="483.76001"
         y="-102.58"
         font-size="14px"
         id="text19"
         style="font-style:normal;font-variant:normal;font-weight:normal;font-stretch:normal;font-family:'Segoe UI';fill:#f0f6fc;">Timer Expires</text>
      <text
         xml:space="preserve"
         text-anchor="middle"
         x="483.76001"
         y="-85.779999"
         font-size="14px"
         id="text20"
         style="font-style:normal;font-variant:normal;font-weight:normal;font-stretch:normal;font-family:'Segoe UI';fill:#f0f6fc;">&amp; Player Visible</text>
    </g>
    <!-- Tracking&#45;&gt;Patrol -->
    <g
       id="edge4"
       class="edge"
       transform="translate(-0.21254568,9.3520097)">
      <title
         id="title20">Tracking-&gt;Patrol</title>
      <path
         fill="none"
         stroke="#f0f6fc"
         d="m 548.51,-34.64 c -38.3,1.48 -86.66,3.1 -129.8,3.84 -100.87,1.72 -126.65,3.87 -226.85,-7.8 -2.06,-0.24 -4.13,-0.49 -6.22,-0.75"
         id="path20" />
      <polygon
         fill="#f0f6fc"
         stroke="#f0f6fc"
         points="185.32,-35.86 175.85,-40.61 186.21,-42.8 "
         id="polygon20" />
      <text
         xml:space="preserve"
         text-anchor="middle"
         x="354.51999"
         y="-35"
         font-size="14px"
         id="text21"
         style="font-style:normal;font-variant:normal;font-weight:normal;font-stretch:normal;font-family:'Segoe UI';fill:#f0f6fc;">Player Lost</text>
    </g>
  </g>
</svg>
